<svg width="40" height="40" viewBox="0 0 40 40" fill="none" xmlns="http://www.w3.org/2000/svg">
<g id="github">
<path id="path18" fill-rule="evenodd" clip-rule="evenodd" d="M20.0002 0C8.95583 0 0 9.18079 0 20.5063C0 29.5666 5.73066 37.2532 13.6773 39.9648C14.6769 40.1546 15.0438 39.5199 15.0438 38.9783C15.0438 38.4893 15.0253 36.8739 15.0167 35.1604C9.45262 36.4009 8.27853 32.7409 8.27853 32.7409C7.36874 30.3707 6.05788 29.7404 6.05788 29.7404C4.24327 28.4677 6.19466 28.4939 6.19466 28.4939C8.20302 28.6382 9.26053 30.6074 9.26053 30.6074C11.0443 33.742 13.9393 32.8357 15.0806 32.3117C15.2601 30.9864 15.7784 30.0814 16.3504 29.5696C11.9081 29.0511 7.23825 27.2928 7.23825 19.4353C7.23825 17.1965 8.01954 15.3672 9.29894 13.9311C9.09129 13.4143 8.40671 11.3289 9.4927 8.50435C9.4927 8.50435 11.1722 7.95322 14.9942 10.6063C16.5895 10.152 18.3005 9.92412 20.0002 9.91631C21.6999 9.92412 23.4121 10.152 25.0105 10.6063C28.8278 7.95322 30.505 8.50435 30.505 8.50435C31.5936 11.3289 30.9087 13.4143 30.7011 13.9311C31.9834 15.3672 32.7594 17.1965 32.7594 19.4353C32.7594 27.3115 28.0807 29.0457 23.6271 29.5533C24.3444 30.1897 24.9837 31.4377 24.9837 33.3508C24.9837 36.0946 24.9605 38.3029 24.9605 38.9783C24.9605 39.524 25.3205 40.1634 26.3343 39.962C34.2766 37.2475 40 29.5635 40 20.5063C40 9.18079 31.0455 0 20.0002 0Z" fill="white"/>
<path id="path20" d="M7.57518 29.4426C7.53113 29.5448 7.37481 29.575 7.2324 29.5051C7.08734 29.4382 7.00586 29.2993 7.05289 29.1971C7.09594 29.0925 7.2526 29.0633 7.39733 29.1329C7.54273 29.2002 7.62552 29.3404 7.57518 29.4426Z" fill="#1B1817"/>
<path id="path22" d="M8.3852 30.369C8.28982 30.4596 8.10336 30.4175 7.97685 30.2742C7.84602 30.1313 7.82152 29.9401 7.91822 29.8481C8.01659 29.7577 8.19742 29.8002 8.32857 29.9428C8.45939 30.0875 8.48489 30.2773 8.3852 30.369Z" fill="#1B1817"/>
<path id="path24" d="M9.17386 31.55C9.05131 31.6373 8.85094 31.5555 8.72707 31.3731C8.60453 31.1908 8.60454 30.9721 8.72973 30.8844C8.85392 30.7968 9.05132 30.876 9.17684 31.0566C9.29905 31.242 9.29905 31.4607 9.17386 31.55Z" fill="#1B1817"/>
<path id="path26" d="M10.2541 32.691C10.1444 32.815 9.91095 32.7817 9.74006 32.6126C9.56519 32.4472 9.5165 32.2126 9.62646 32.0886C9.73741 31.9643 9.97222 31.9993 10.1444 32.1671C10.318 32.3321 10.371 32.5684 10.2541 32.691Z" fill="#1B1817"/>
<path id="path28" d="M11.7443 33.3535C11.696 33.5142 11.4711 33.5872 11.2445 33.5189C11.0183 33.4486 10.8703 33.2605 10.916 33.0982C10.963 32.9365 11.1889 32.8605 11.4171 32.9335C11.643 33.0034 11.7913 33.1902 11.7443 33.3535Z" fill="#1B1817"/>
<path id="path30" d="M13.3812 33.4764C13.3868 33.6455 13.1947 33.7858 12.9569 33.7888C12.7178 33.7943 12.5244 33.6574 12.5217 33.491C12.5217 33.3202 12.7095 33.1813 12.9486 33.1773C13.1864 33.1725 13.3812 33.3083 13.3812 33.4764Z" fill="#1B1817"/>
<path id="path32" d="M14.9045 33.2106C14.933 33.3756 14.7677 33.545 14.5316 33.5902C14.2994 33.6337 14.0844 33.5318 14.055 33.3681C14.0262 33.199 14.1944 33.0296 14.4262 32.9858C14.6627 32.9437 14.8743 33.0428 14.9045 33.2106Z" fill="#1B1817"/>
</g>
</svg>
