<svg width="40" height="40" viewBox="0 0 40 40" fill="none" xmlns="http://www.w3.org/2000/svg">
<g id="instagram">
<g id="Group">
<path id="Vector" d="M20.0176 9.80921C19.6658 9.80921 19.3179 9.82715 18.9751 9.86226C18.6323 9.89737 18.2943 9.9494 17.962 10.0177C17.6297 10.086 17.3034 10.1706 16.9835 10.2704L16.0447 10.6151L15.1509 11.0467L14.3075 11.5599L13.5194 12.1494L12.7922 12.81L12.1309 13.5365L11.5408 14.3237L11.027 15.1664L10.5951 16.0592C10.4653 16.3646 10.3499 16.6776 10.2499 16.9972C10.15 17.3168 10.0654 17.6431 9.99695 17.975C9.92852 18.3068 9.87649 18.6445 9.84125 18.987C9.80601 19.3296 9.78833 19.6771 9.78833 20.0285C9.78833 20.3798 9.80627 20.7274 9.84125 21.0699C9.87604 21.4097 9.928 21.7475 9.99695 22.0821C10.0654 22.4153 10.15 22.7403 10.2499 23.0599C10.3499 23.3794 10.4652 23.6924 10.5951 23.9979L11.027 24.8906L11.5408 25.7332L12.1309 26.5205L12.7922 27.2471L13.5194 27.9077L14.3075 28.4971L15.1509 29.0104L16.0447 29.442L16.9835 29.7867L17.962 30.0394C18.2969 30.1082 18.635 30.1602 18.9751 30.1949C19.3215 30.2303 19.6694 30.2479 20.0176 30.2479C20.3693 30.2479 20.7172 30.2299 21.0599 30.1949C21.4 30.1602 21.7381 30.1082 22.073 30.0394L23.0517 29.7867L23.9904 29.442L24.8841 29.0104L25.7277 28.4971L26.5158 27.9077L27.2431 27.2471L27.9044 26.5205L28.4945 25.7332L29.0083 24.8906L29.4402 23.9979L29.7854 23.0599C29.8853 22.7403 29.9699 22.414 30.0383 22.0821L30.194 21.0698C30.2291 20.7272 30.2471 20.3797 30.2471 20.0283C30.2471 19.677 30.2291 19.3294 30.194 18.9869C30.1593 18.6471 30.1073 18.3093 30.0383 17.9748C29.9699 17.6417 29.8853 17.3168 29.7854 16.9971L29.4402 16.0591L29.0083 15.1663L28.4945 14.3236L27.9044 13.5364L27.2431 12.8098L26.5158 12.1493L25.7277 11.5598L24.8841 11.0466L23.9904 10.615L23.0517 10.2703L22.073 10.0176L21.0599 9.86213C20.7136 9.82676 20.3657 9.80906 20.0176 9.80908V9.80921ZM20.0176 13.3365C20.2502 13.3365 20.4797 13.348 20.7057 13.3709L21.3721 13.4717L22.0157 13.6357L22.6321 13.8596L23.2181 14.1402L23.7691 14.4741L24.2843 14.8581L24.7592 15.2889L25.1904 15.7633L25.5748 16.2779L25.909 16.8297L26.1897 17.4153C26.274 17.6158 26.3488 17.8212 26.4139 18.0312C26.479 18.2412 26.5337 18.4559 26.5779 18.6745C26.6221 18.8931 26.6548 19.1156 26.6788 19.3415L26.7131 20.0291C26.7131 20.2614 26.7016 20.4908 26.6788 20.7169C26.656 20.9429 26.6224 21.1654 26.5779 21.3839C26.5335 21.6023 26.4786 21.817 26.4139 22.0271L26.1897 22.643L25.909 23.2286L25.5748 23.7803L25.1904 24.295L24.7592 24.7694L24.2843 25.2002L23.7691 25.5843L23.2181 25.9181L22.6321 26.1987L22.0157 26.4226L21.3721 26.5866L20.7057 26.6874C20.477 26.7103 20.2473 26.7217 20.0175 26.7217C19.7876 26.7217 19.5578 26.7103 19.3291 26.6874L18.6627 26.5866C18.444 26.5423 18.2292 26.4875 18.0189 26.4226L17.4025 26.1987L16.8165 25.9181L16.2655 25.5843L15.7504 25.2002L15.2755 24.7694L14.8443 24.295L14.4598 23.7803L14.1256 23.2286L13.845 22.643L13.6207 22.0271L13.4567 21.3839L13.3559 20.7169C13.3329 20.4883 13.3215 20.2588 13.3215 20.0291C13.3215 19.7995 13.3329 19.57 13.3559 19.3415C13.3786 19.1156 13.4123 18.893 13.4567 18.6745C13.5007 18.4575 13.5555 18.2429 13.6209 18.0313L13.8451 17.4155L14.1258 16.8299L14.46 16.2781L14.8444 15.7634L15.2756 15.289L15.7505 14.8582L16.2656 14.4742L16.8167 14.1404L17.4027 13.8597C17.6044 13.775 17.8101 13.7003 18.0192 13.6359L18.663 13.4718C18.8817 13.4275 19.1044 13.3937 19.3293 13.371C19.5581 13.3481 19.7878 13.3366 20.0177 13.3366L20.0176 13.3365Z" fill="white"/>
<path id="Vector_2" d="M30.6616 6.90213C30.5804 6.90215 30.4992 6.90625 30.4184 6.91443C30.3376 6.9226 30.2572 6.93483 30.1776 6.95108C30.098 6.96731 30.0193 6.98754 29.9417 7.01169C29.8641 7.03586 29.7878 7.06391 29.713 7.09576C29.6381 7.12764 29.565 7.16326 29.4937 7.2025C29.4224 7.24166 29.3531 7.28439 29.2861 7.33052C29.2191 7.3767 29.1544 7.42622 29.0922 7.47891C29.0301 7.53154 28.9707 7.58727 28.9141 7.64588C28.8575 7.70453 28.8039 7.76598 28.7534 7.83002C28.7029 7.89407 28.6557 7.96062 28.6118 8.02942C28.568 8.09816 28.5275 8.16907 28.4907 8.24188C28.4538 8.31474 28.4206 8.38942 28.3911 8.46562C28.3617 8.54181 28.3361 8.61944 28.3144 8.6982C28.2927 8.77696 28.2749 8.85677 28.2611 8.93732C28.2473 9.01785 28.2375 9.09902 28.2317 9.18054C28.2277 9.23828 28.2256 9.29615 28.2256 9.35405C28.2256 9.43583 28.2296 9.51756 28.2378 9.59893C28.2459 9.68026 28.258 9.76114 28.2742 9.84125C28.2903 9.92136 28.3104 10.0006 28.3344 10.0787C28.3584 10.1568 28.3863 10.2337 28.4179 10.309C28.4496 10.3843 28.4849 10.458 28.5239 10.5298C28.5628 10.6015 28.6053 10.6713 28.6512 10.7388C28.697 10.8062 28.7462 10.8713 28.7985 10.9338C28.8508 10.9964 28.9062 11.0562 28.9645 11.1132C29.0227 11.1702 29.0838 11.2241 29.1475 11.2749C29.2111 11.3258 29.2772 11.3734 29.3456 11.4176C29.4139 11.4617 29.4845 11.5025 29.5569 11.5395C29.6292 11.5767 29.7034 11.6101 29.7791 11.6398C29.8548 11.6694 29.9319 11.6952 30.0101 11.717C30.0884 11.7389 30.1677 11.7567 30.2477 11.7706C30.3277 11.7845 30.4084 11.7944 30.4894 11.8002C30.5467 11.8043 30.6042 11.8063 30.6617 11.8063C30.743 11.8064 30.8241 11.8023 30.905 11.7942C30.9858 11.786 31.0661 11.7738 31.1457 11.7575C31.2253 11.7413 31.3041 11.7211 31.3817 11.6969C31.4592 11.6727 31.5356 11.6447 31.6104 11.6128C31.6852 11.581 31.7584 11.5454 31.8296 11.5062C31.9009 11.467 31.9702 11.4243 32.0372 11.3781C32.1043 11.3319 32.169 11.2825 32.2311 11.2298C32.2932 11.1771 32.3527 11.1214 32.4092 11.0627C32.4658 11.0041 32.5195 10.9426 32.5699 10.8786C32.6204 10.8145 32.6677 10.748 32.7115 10.6792C32.7554 10.6104 32.7958 10.5394 32.8326 10.4666C32.8695 10.3937 32.9027 10.3191 32.9322 10.2429C32.9616 10.1667 32.9872 10.089 33.009 10.0103C33.0307 9.93151 33.0485 9.85171 33.0623 9.77116C33.0761 9.69063 33.0859 9.60945 33.0916 9.52794C33.0957 9.47019 33.0977 9.41232 33.0978 9.35443C33.0978 9.27269 33.0937 9.191 33.0856 9.10967C33.0775 9.02834 33.0653 8.94746 33.0492 8.86735C33.0331 8.78724 33.013 8.70799 32.989 8.6299C32.9649 8.55179 32.9371 8.47493 32.9054 8.39963C32.8738 8.3243 32.8384 8.2506 32.7994 8.17883C32.7605 8.10707 32.718 8.03732 32.6722 7.96983C32.6263 7.90234 32.5771 7.8372 32.5247 7.77467C32.4724 7.71212 32.4171 7.65224 32.3589 7.59526C32.3006 7.53832 32.2395 7.48435 32.1759 7.43355C32.1123 7.38275 32.0461 7.33519 31.9778 7.29105C31.9094 7.24686 31.8389 7.20615 31.7665 7.16905C31.6941 7.13194 31.6199 7.0985 31.5443 7.06885C31.4686 7.03923 31.3915 7.01344 31.3132 6.99157C31.235 6.9697 31.1557 6.95178 31.0756 6.93788C30.9956 6.92401 30.915 6.91417 30.834 6.90841C30.7766 6.90431 30.7191 6.90226 30.6616 6.90226V6.90213Z" fill="white"/>
<path id="Vector_3" d="M18.0777 0.0361698C16.9652 0.0343758 15.9723 0.0389883 15.0804 0.0515465L12.6892 0.115619C11.9808 0.146373 11.355 0.18648 10.7932 0.238378C10.5123 0.264263 10.2473 0.293224 9.99615 0.325132C9.75714 0.355256 9.51878 0.390334 9.28123 0.43034C9.05505 0.468784 8.84041 0.5103 8.63461 0.555407C8.42881 0.600514 8.23224 0.649211 8.04259 0.701494C7.85718 0.752619 7.67322 0.808854 7.49092 0.870133C7.31229 0.930361 7.13801 0.994176 6.96592 1.06235C6.62172 1.19869 6.28598 1.3517 5.94025 1.52315C5.67422 1.65514 5.42844 1.7888 5.19496 1.93027C4.96148 2.07174 4.74031 2.22116 4.52374 2.3839C4.30072 2.55232 4.08575 2.73115 3.87956 2.9198C3.66402 3.11612 3.44387 3.33204 3.21513 3.57334C2.9277 3.87486 2.67795 4.15601 2.45626 4.43191C2.34541 4.56979 2.24162 4.70613 2.14384 4.84325C2.04715 4.97837 1.95471 5.1165 1.86667 5.25741C1.77953 5.39709 1.697 5.53933 1.61807 5.68567C1.5379 5.83453 1.46213 5.98572 1.39087 6.13904C1.24504 6.45223 1.10895 6.7895 0.973116 7.16599C0.872346 7.44432 0.782111 7.72636 0.702604 8.01149C0.621488 8.30289 0.549343 8.60774 0.485014 8.93746C0.420686 9.26718 0.364558 9.62175 0.315223 10.0139C0.262058 10.4437 0.219587 10.8748 0.187847 11.3067C0.151967 11.7816 0.122237 12.3042 0.09789 12.8858L0.0402252 14.8198L0.00921421 17.1773L0.000244141 20.0268L0.0265137 24.1706L0.108526 27.3102L0.171701 28.5365L0.250638 29.5527C0.275943 29.8266 0.307603 30.0999 0.345593 30.3723C0.380192 30.6142 0.417354 30.8259 0.457335 31.0092C0.53846 31.3817 0.634388 31.7509 0.744891 32.1158C0.850697 32.4652 0.971695 32.8098 1.10754 33.1487C1.24107 33.4806 1.38715 33.8007 1.54605 34.1087C1.70495 34.4168 1.87666 34.7128 2.06119 34.9972C2.24572 35.2815 2.44306 35.5542 2.65373 35.8152C2.86416 36.0763 3.08799 36.3262 3.32431 36.5641C3.56099 36.8025 3.81062 37.0293 4.0737 37.2448C4.33989 37.4628 4.61659 37.6677 4.90279 37.8586C5.16844 38.0362 5.43126 38.1988 5.69601 38.3481C5.96075 38.4974 6.22781 38.6329 6.50229 38.756C6.77678 38.8792 7.05818 38.99 7.35214 39.0897C7.64611 39.1894 7.95237 39.2781 8.27606 39.3568C8.59976 39.4354 8.94242 39.5045 9.30506 39.5647C9.66771 39.625 10.0554 39.6766 10.4695 39.7211C10.8837 39.7655 11.3255 39.8023 11.8003 39.8331C12.2751 39.8638 12.7825 39.8884 13.3278 39.9082C14.1701 39.9387 15.4451 39.9565 16.9154 39.9633L21.6754 39.9537L26.1827 39.8905L27.8965 39.8423L29.013 39.7849C29.2527 39.7654 29.4872 39.7423 29.7135 39.7153C29.9398 39.6883 30.163 39.6574 30.3803 39.6223C30.5977 39.5872 30.8101 39.5479 31.0189 39.5044C31.2252 39.4614 31.4305 39.4134 31.6345 39.3605C31.8364 39.3092 32.0356 39.2509 32.2327 39.189C32.4297 39.1271 32.6248 39.0602 32.8187 38.9885C33.0137 38.9162 33.2069 38.8393 33.3981 38.7577C33.5907 38.6757 33.7831 38.588 33.9761 38.495C34.2725 38.3522 34.5111 38.2332 34.7206 38.117C34.9177 38.0088 35.1075 37.888 35.2888 37.7551C35.4677 37.6233 35.6455 37.4734 35.8506 37.2845C36.0556 37.0956 36.2879 36.8681 36.5756 36.5802C36.8284 36.3275 37.0417 36.1079 37.2255 35.9081C37.4094 35.7084 37.5644 35.5286 37.7002 35.3553C37.8297 35.1909 37.9503 35.0197 38.0616 34.8425C38.1701 34.6695 38.2701 34.4898 38.3719 34.2906C38.5252 33.9907 38.6615 33.713 38.7837 33.4451C38.9022 33.1868 39.0106 32.924 39.1084 32.6572C39.2047 32.3926 39.2882 32.1233 39.3584 31.8506C39.4307 31.5699 39.4929 31.2737 39.5468 30.9487C39.6006 30.6237 39.6461 30.27 39.6855 29.8751C39.725 29.4802 39.7586 29.0437 39.7881 28.5533L39.8662 26.907L39.9334 24.8597L39.9813 22.5787L39.9997 20.1937L39.9569 15.5093L39.8997 13.4112L39.8215 11.6098L39.7241 10.2053C39.6887 9.81448 39.6506 9.50668 39.6101 9.29857C39.5653 9.06863 39.5152 8.83975 39.4599 8.6121C39.4061 8.39059 39.3469 8.17042 39.2824 7.95177C39.2195 7.73876 39.1513 7.52738 39.0776 7.31784C39.0048 7.11089 38.9277 6.90829 38.847 6.71006C38.7662 6.51182 38.6788 6.31819 38.5879 6.12866C38.4969 5.93914 38.4015 5.75423 38.3014 5.57354C38.2014 5.39286 38.0971 5.21666 37.988 5.04482C37.879 4.87298 37.7654 4.70549 37.6471 4.54249C37.5295 4.38001 37.4069 4.22125 37.2794 4.06644C37.1525 3.91247 37.0208 3.76255 36.8844 3.61691C36.7483 3.47144 36.6075 3.33033 36.4624 3.19377C36.3173 3.05717 36.1677 2.92493 36.0134 2.79704C35.8586 2.66873 35.6998 2.54527 35.5372 2.42683C35.373 2.30718 35.2051 2.19257 35.0339 2.08315C34.8603 1.97217 34.6835 1.86636 34.5036 1.76586C34.3206 1.66368 34.1348 1.56676 33.9462 1.47523C33.6333 1.32312 33.3439 1.18819 33.0598 1.0685C32.7806 0.949718 32.4959 0.844221 32.2066 0.752367C31.9158 0.660744 31.613 0.582192 31.2798 0.514404C30.9466 0.446616 30.5833 0.390104 30.1721 0.34205C29.7609 0.293995 29.3017 0.255169 28.7766 0.222876C28.2515 0.190584 27.6608 0.165209 26.9864 0.144706L24.6944 0.0934492L21.7936 0.0592348L18.079 0.036424L18.0777 0.0361698ZM20.0069 3.56039L25.3637 3.59089L27.3846 3.62985C27.9411 3.64548 28.3658 3.66381 28.6148 3.68495C28.939 3.71225 29.2478 3.74646 29.5432 3.78747C29.8266 3.82661 30.1087 3.87529 30.3889 3.93342C30.658 3.98981 30.9147 4.05388 31.1603 4.12615C31.406 4.19843 31.6406 4.27941 31.8658 4.36898C32.0909 4.45856 32.3062 4.5571 32.5134 4.665C32.719 4.77208 32.9187 4.88992 33.1119 5.01804C33.3041 5.14554 33.4894 5.28291 33.6693 5.43092C33.8492 5.57892 34.0236 5.73757 34.1939 5.90723C34.3737 6.08625 34.5395 6.2686 34.6924 6.45671C34.8447 6.64366 34.9856 6.83961 35.1144 7.04349C35.2446 7.25027 35.3619 7.46489 35.4657 7.68613C35.5718 7.91166 35.6672 8.15001 35.7528 8.40335C35.8384 8.6567 35.9146 8.92593 35.9822 9.21361C36.0529 9.51861 36.1121 9.82616 36.1598 10.1356C36.211 10.4637 36.2549 10.8135 36.292 11.1881C36.3292 11.5626 36.3599 11.9621 36.3853 12.3894C36.4055 12.7322 36.4232 13.1845 36.4382 13.7188L36.4758 15.5404L36.5045 20.0023L36.4718 24.4601L36.4326 26.2764L36.3786 27.5975C36.3412 28.216 36.3018 28.736 36.2546 29.1886C36.2309 29.4149 36.2053 29.6243 36.1768 29.8208C36.1502 30.0064 36.1186 30.1912 36.0821 30.3751C36.0488 30.5429 36.0101 30.7096 35.9661 30.8749C35.924 31.0326 35.8766 31.1889 35.824 31.3435C35.771 31.4988 35.7134 31.6525 35.6512 31.8043C35.5854 31.9646 35.5159 32.1235 35.4429 32.2806C35.378 32.4209 35.3097 32.5574 35.2374 32.6903C35.1659 32.8218 35.09 32.9509 35.0098 33.0773C34.9304 33.2025 34.8471 33.3241 34.7599 33.4419C34.6733 33.5592 34.5824 33.6735 34.4875 33.7843C34.3929 33.8946 34.2943 34.0015 34.1919 34.1046C34.0893 34.2078 33.983 34.3074 33.8728 34.4035C33.7626 34.4996 33.6483 34.5918 33.53 34.6808C33.4117 34.7697 33.2893 34.855 33.1629 34.9368C33.0364 35.0186 32.9059 35.097 32.7712 35.1718C32.6366 35.2467 32.4977 35.3182 32.3548 35.3862C32.2094 35.4553 32.062 35.52 31.9128 35.5802C31.7585 35.6424 31.6026 35.7003 31.4451 35.7538C31.1247 35.863 30.7868 35.9589 30.4311 36.0415C30.0603 36.1271 29.6862 36.1972 29.3096 36.2514C29.1648 36.2726 28.832 36.2924 28.3553 36.3109L26.5387 36.3614L21.3886 36.4283L15.998 36.4367L13.8811 36.4142L12.5065 36.3714L11.4929 36.3001C11.1782 36.2736 10.8855 36.2441 10.6112 36.2107C10.337 36.1772 10.0816 36.1399 9.84135 36.0979C9.61366 36.0585 9.38736 36.0115 9.16282 35.957C8.95809 35.9072 8.75546 35.8491 8.55542 35.7829C8.36256 35.7189 8.17816 35.6484 7.99876 35.5709C7.81936 35.4933 7.64508 35.4084 7.47247 35.3156C7.29986 35.2228 7.12904 35.1221 6.95631 35.0123C6.82598 34.9295 6.70002 34.8457 6.57879 34.7569C6.45757 34.6681 6.34044 34.5795 6.22768 34.4868C6.11491 34.394 6.00663 34.2984 5.90219 34.2C5.79845 34.102 5.69826 34.0004 5.60182 33.8952C5.50571 33.7904 5.41383 33.6825 5.32567 33.5708C5.23716 33.4586 5.15283 33.3432 5.07284 33.2248C4.99166 33.1046 4.91485 32.9815 4.84256 32.8557C4.76952 32.7289 4.70007 32.5977 4.63407 32.4623C4.56697 32.3244 4.50436 32.1844 4.44634 32.0424C4.3874 31.8979 4.33152 31.7487 4.27899 31.5947C4.17391 31.2865 4.08164 30.9584 4.00142 30.6086C3.92121 30.2588 3.85278 29.8871 3.79486 29.4912C3.73693 29.0952 3.69029 28.6754 3.65313 28.2292C3.6257 27.9005 3.60392 27.3886 3.58726 26.7427L3.55241 24.4457L3.56522 18.5902L3.66607 12.9949L3.74296 11.0235L3.78653 10.3719C3.80165 10.1979 3.81728 10.069 3.8333 9.99157C3.88609 9.73695 3.93927 9.50001 3.99425 9.2782C4.0456 9.06894 4.10273 8.86113 4.16558 8.65503C4.22529 8.46051 4.28821 8.27829 4.35549 8.10567C4.42036 7.93847 4.49266 7.77423 4.57218 7.61347C4.64984 7.45714 4.73326 7.30746 4.82385 7.16176C4.91445 7.01606 5.01223 6.87472 5.11884 6.73415C5.22546 6.59357 5.34028 6.45479 5.46522 6.31409C5.59016 6.17339 5.72509 6.03127 5.87144 5.88481C6.04199 5.71328 6.21958 5.5489 6.40375 5.39209C6.57765 5.24414 6.75899 5.10518 6.94708 4.97575C7.13199 4.8476 7.32165 4.73356 7.51912 4.62873C7.71659 4.52391 7.92187 4.42921 8.1378 4.344C8.35372 4.25878 8.58054 4.18254 8.82081 4.11334C9.07323 4.04253 9.32845 3.98213 9.58583 3.93227C9.85647 3.87922 10.1439 3.83296 10.4508 3.79259C10.7577 3.75223 11.0842 3.71737 11.4333 3.68713C11.6768 3.66611 12.0963 3.6474 12.6487 3.63164L14.6593 3.59192L20.0078 3.55924L20.0069 3.56039Z" fill="white"/>
</g>
</g>
</svg>
