<svg width="40" height="40" viewBox="0 0 40 40" fill="none" xmlns="http://www.w3.org/2000/svg">
<g id="linkedin">
<rect id="bg" x="2.5" y="2.5" width="35" height="35" rx="17.5" fill="white"/>
<g id="linked_in">
<path d="M15.7732 12.1152C15.7732 13.2834 14.7606 14.2304 13.5116 14.2304C12.2626 14.2304 11.25 13.2834 11.25 12.1152C11.25 10.947 12.2626 10 13.5116 10C14.7606 10 15.7732 10.947 15.7732 12.1152Z" stroke="#090A1A"/>
<path d="M11.5593 15.7851H15.4253V27.5H11.5593V15.7851Z" stroke="#090A1A"/>
<path d="M21.6495 15.7851H17.7835V27.5H21.6495C21.6495 27.5 21.6495 23.812 21.6495 21.5061C21.6495 20.122 22.1221 18.7319 24.0077 18.7319C26.1388 18.7319 26.1259 20.5432 26.116 21.9464C26.103 23.7806 26.134 25.6523 26.134 27.5H30V21.3171C29.9673 17.3692 28.9385 15.5501 25.5541 15.5501C23.5442 15.5501 22.2984 16.4626 21.6495 17.2881V15.7851Z" stroke="#090A1A"/>
</g>
</g>
</svg>
