<svg width="40" height="40" viewBox="0 0 40 40" fill="none" xmlns="http://www.w3.org/2000/svg">
<g id="twitter">
<g id="Logo 1">
<path id="white background" d="M35.4682 9.68147L35.2855 9.84224L35.2993 10.0853C35.3225 10.4942 35.3227 10.9055 35.3227 11.3373C35.3227 17.7847 33.3016 24.7232 29.4483 30.0376C25.6906 35.2202 20.2067 38.8425 13.1469 39.006V39.003L12.646 39.0039C8.89704 39.0106 5.20835 37.8754 1.91189 35.7061C1.97411 35.7071 2.03634 35.7077 2.09857 35.7079H2.09955C5.90797 35.7119 9.59183 34.1577 12.5615 31.3224L13.4347 30.4888L12.2277 30.4609C9.23294 30.3918 6.50518 28.1619 5.32034 24.7155C6.36722 24.8362 7.42529 24.7258 8.44156 24.3882L10.087 23.8417L8.40322 23.4282C5.0839 22.6129 2.55278 19.1795 2.27537 14.9769C3.26659 15.4923 4.33601 15.7816 5.42873 15.8212L6.92146 15.8754L5.76215 14.9335C2.59139 12.3574 1.44453 7.32782 3.03014 3.12895C7.22379 8.98048 13.2261 12.5518 19.6827 12.9442L20.3247 12.9832L20.2041 12.3514C19.5735 9.04759 20.441 5.60392 22.4457 3.31363L22.4457 3.31359C23.9944 1.54374 25.963 0.726276 27.8867 0.797944C29.8112 0.869641 31.7387 1.83317 33.1982 3.71968L33.3959 3.97529L33.7102 3.89996C35.1435 3.5564 36.5289 2.98925 37.834 2.21714C37.173 3.82283 36.1512 5.16513 34.8913 6.08201L35.2565 6.98123C36.3903 6.81874 37.5053 6.51657 38.5837 6.0811C37.6813 7.4464 36.633 8.65673 35.4682 9.68147Z" fill="white" stroke="#090A1A"/>
</g>
</g>
</svg>
