<svg width="40" height="40" viewBox="0 0 40 40" fill="none" xmlns="http://www.w3.org/2000/svg">
<g id="github">
<path id="path18" fill-rule="evenodd" clip-rule="evenodd" d="M20.0002 -8.73855e-07C8.95583 -8.73855e-07 0 9.18079 0 20.5063C0 29.5666 5.73066 37.2532 13.6773 39.9648C14.6769 40.1546 15.0438 39.5199 15.0438 38.9783C15.0438 38.4893 15.0253 36.8739 15.0167 35.1604C9.45262 36.4009 8.27853 32.7409 8.27853 32.7409C7.36874 30.3707 6.05788 29.7404 6.05788 29.7404C4.24327 28.4677 6.19466 28.4939 6.19466 28.4939C8.20302 28.6382 9.26053 30.6074 9.26053 30.6074C11.0443 33.742 13.9393 32.8357 15.0806 32.3117C15.2601 30.9864 15.7784 30.0814 16.3504 29.5696C11.9081 29.0511 7.23825 27.2928 7.23825 19.4353C7.23825 17.1965 8.01954 15.3672 9.29894 13.9311C9.09129 13.4143 8.40671 11.3289 9.4927 8.50435C9.4927 8.50435 11.1722 7.95322 14.9942 10.6063C16.5895 10.152 18.3005 9.92412 20.0002 9.91631C21.6999 9.92412 23.4121 10.152 25.0105 10.6063C28.8278 7.95322 30.505 8.50435 30.505 8.50435C31.5936 11.3289 30.9087 13.4143 30.7011 13.9311C31.9834 15.3672 32.7594 17.1965 32.7594 19.4353C32.7594 27.3115 28.0806 29.0457 23.6271 29.5533C24.3444 30.1897 24.9837 31.4377 24.9837 33.3508C24.9837 36.0946 24.9605 38.3029 24.9605 38.9783C24.9605 39.524 25.3205 40.1634 26.3343 39.962C34.2766 37.2475 40 29.5635 40 20.5063C40 9.18079 31.0455 -8.73855e-07 20.0002 -8.73855e-07" fill="white"/>
<path id="path20" d="M7.57507 29.4426C7.53102 29.5448 7.3747 29.575 7.23229 29.505C7.08722 29.4381 7.00574 29.2992 7.05277 29.197C7.09583 29.0924 7.25249 29.0632 7.39722 29.1329C7.54261 29.2001 7.62541 29.3403 7.57507 29.4426Z" fill="#1B1817"/>
<path id="path22" d="M8.38517 30.369C8.28978 30.4596 8.10332 30.4175 7.97681 30.2742C7.84599 30.1313 7.82148 29.9401 7.91819 29.8481C8.01655 29.7577 8.19738 29.8002 8.32853 29.9428C8.45935 30.0875 8.48485 30.2773 8.38517 30.369Z" fill="#1B1817"/>
<path id="path24" d="M9.17375 31.5501C9.05121 31.6374 8.85083 31.5556 8.72697 31.3732C8.60443 31.1909 8.60443 30.9722 8.72962 30.8846C8.85382 30.797 9.05121 30.8761 9.17673 31.0567C9.29894 31.2421 9.29894 31.4608 9.17375 31.5501" fill="#1B1817"/>
<path id="path26" d="M10.2541 32.691C10.1445 32.8149 9.91099 32.7816 9.74009 32.6125C9.56522 32.4472 9.51654 32.2125 9.62649 32.0886C9.73744 31.9643 9.97226 31.9993 10.1445 32.167C10.318 32.332 10.371 32.5684 10.2541 32.691Z" fill="#1B1817"/>
<path id="path28" d="M11.7444 33.3535C11.6961 33.5141 11.4712 33.5871 11.2447 33.5189C11.0184 33.4486 10.8704 33.2605 10.9161 33.0981C10.9631 32.9365 11.189 32.8604 11.4172 32.9335C11.6431 33.0034 11.7915 33.1902 11.7444 33.3535Z" fill="#1B1817"/>
<path id="path30" d="M13.3812 33.4765C13.3869 33.6456 13.1948 33.7858 12.957 33.7889C12.7179 33.7943 12.5244 33.6575 12.5218 33.4911C12.5218 33.3203 12.7096 33.1814 12.9487 33.1773C13.1865 33.1726 13.3812 33.3084 13.3812 33.4765Z" fill="#1B1817"/>
<path id="path32" d="M14.9044 33.2106C14.9329 33.3757 14.7676 33.5451 14.5314 33.5903C14.2993 33.6338 14.0843 33.5319 14.0549 33.3682C14.026 33.1991 14.1943 33.0297 14.4261 32.9859C14.6626 32.9437 14.8742 33.0429 14.9044 33.2106" fill="#1B1817"/>
</g>
</svg>
