<svg width="40" height="40" viewBox="0 0 40 40" fill="none" xmlns="http://www.w3.org/2000/svg">
<g id="instagram">
<g id="Group">
<path id="Vector" d="M20.0176 9.80921C19.6658 9.80921 19.3179 9.82715 18.9751 9.86226C18.6323 9.89737 18.2943 9.9494 17.962 10.0177C17.6297 10.086 17.3033 10.1706 16.9835 10.2704L16.0447 10.6151L15.1509 11.0467L14.3075 11.5599L13.5194 12.1494L12.7921 12.81L12.1309 13.5365L11.5408 14.3237L11.027 15.1664L10.5951 16.0592C10.4653 16.3646 10.3498 16.6776 10.2499 16.9972C10.1499 17.3168 10.0654 17.6431 9.99693 17.975C9.9285 18.3068 9.87648 18.6445 9.84124 18.987C9.806 19.3296 9.78831 19.6771 9.78831 20.0285C9.78831 20.3798 9.80626 20.7274 9.84124 21.0699C9.87602 21.4097 9.92799 21.7475 9.99693 22.0821C10.0654 22.4153 10.1499 22.7403 10.2499 23.0599C10.3498 23.3794 10.4652 23.6924 10.5951 23.9979L11.027 24.8906L11.5408 25.7332L12.1309 26.5205L12.7921 27.2471L13.5194 27.9077L14.3075 28.4971L15.1509 29.0104L16.0447 29.442L16.9835 29.7867L17.962 30.0394C18.2969 30.1082 18.635 30.1602 18.9751 30.1949C19.3215 30.2303 19.6694 30.2479 20.0176 30.2479C20.3693 30.2479 20.7172 30.2299 21.0599 30.1949C21.4 30.1602 21.7381 30.1082 22.073 30.0394L23.0516 29.7867L23.9904 29.442L24.8841 29.0104L25.7277 28.4971L26.5158 27.9077L27.2431 27.2471L27.9043 26.5205L28.4944 25.7332L29.0083 24.8906L29.4402 23.9979L29.7854 23.0599C29.8853 22.7403 29.9699 22.414 30.0383 22.0821L30.194 21.0698C30.2291 20.7272 30.2471 20.3797 30.2471 20.0283C30.2471 19.677 30.2291 19.3294 30.194 18.9869C30.1592 18.6471 30.1073 18.3093 30.0383 17.9748C29.9699 17.6417 29.8853 17.3168 29.7854 16.9971L29.4402 16.0591L29.0083 15.1663L28.4944 14.3236L27.9043 13.5364L27.2431 12.8098L26.5158 12.1493L25.7277 11.5598L24.8841 11.0466L23.9904 10.615L23.0516 10.2703L22.073 10.0176L21.0599 9.86213C20.7136 9.82676 20.3657 9.80906 20.0176 9.80908V9.80921ZM20.0176 13.3365C20.2501 13.3365 20.4797 13.348 20.7057 13.3709L21.3721 13.4717L22.0157 13.6357L22.6321 13.8596L23.2181 14.1402L23.7691 14.4741L24.2843 14.8581L24.7592 15.2889L25.1904 15.7633L25.5748 16.2779L25.909 16.8297L26.1896 17.4153C26.274 17.6158 26.3488 17.8212 26.4139 18.0312C26.479 18.2412 26.5337 18.4559 26.5779 18.6745C26.6221 18.8931 26.6548 19.1156 26.6788 19.3415L26.7131 20.0291C26.7131 20.2614 26.7016 20.4908 26.6788 20.7169C26.656 20.9429 26.6224 21.1654 26.5779 21.3839C26.5335 21.6023 26.4786 21.817 26.4139 22.0271L26.1896 22.643L25.909 23.2286L25.5748 23.7803L25.1904 24.295L24.7592 24.7694L24.2843 25.2002L23.7691 25.5843L23.2181 25.9181L22.6321 26.1987L22.0157 26.4226L21.3721 26.5866L20.7057 26.6874C20.477 26.7103 20.2473 26.7217 20.0174 26.7217C19.7875 26.7217 19.5578 26.7103 19.329 26.6874L18.6627 26.5866C18.444 26.5423 18.2292 26.4875 18.0189 26.4226L17.4025 26.1987L16.8165 25.9181L16.2655 25.5843L15.7504 25.2002L15.2755 24.7694L14.8443 24.295L14.4598 23.7803L14.1256 23.2286L13.845 22.643L13.6207 22.0271L13.4567 21.3839L13.3559 20.7169C13.3329 20.4883 13.3215 20.2588 13.3215 20.0291C13.3215 19.7995 13.3329 19.57 13.3559 19.3415C13.3785 19.1156 13.4122 18.893 13.4567 18.6745C13.5007 18.4575 13.5555 18.2429 13.6209 18.0313L13.8451 17.4155L14.1257 16.8299L14.4599 16.2781L14.8444 15.7634L15.2756 15.289L15.7505 14.8582L16.2656 14.4742L16.8166 14.1404L17.4027 13.8597C17.6044 13.775 17.8101 13.7003 18.0192 13.6359L18.663 13.4718C18.8817 13.4275 19.1044 13.3937 19.3293 13.371C19.5581 13.3481 19.7878 13.3366 20.0177 13.3366L20.0176 13.3365Z" fill="url(#paint0_radial_33_176)"/>
<path id="Vector_2" d="M30.6618 6.90234C30.5806 6.90236 30.4994 6.90646 30.4186 6.91464C30.3378 6.92281 30.2574 6.93505 30.1778 6.9513C30.0982 6.96753 30.0195 6.98776 29.9419 7.01191C29.8643 7.03607 29.788 7.06413 29.7131 7.09597C29.6383 7.12785 29.5652 7.16347 29.4939 7.20271C29.4226 7.24188 29.3533 7.2846 29.2863 7.33073C29.2193 7.37691 29.1545 7.42644 29.0924 7.47912C29.0303 7.53176 28.9709 7.58748 28.9143 7.64609C28.8577 7.70474 28.8041 7.7662 28.7536 7.83024C28.7031 7.89428 28.6559 7.96083 28.612 8.02963C28.5681 8.09838 28.5277 8.16929 28.4909 8.24209C28.454 8.31496 28.4208 8.38963 28.3913 8.46583C28.3619 8.54202 28.3363 8.61965 28.3146 8.69842C28.2929 8.77718 28.2751 8.85698 28.2613 8.93753C28.2475 9.01806 28.2377 9.09924 28.2319 9.18075C28.2278 9.2385 28.2258 9.29637 28.2258 9.35426C28.2258 9.43604 28.2298 9.51777 28.238 9.59914C28.2461 9.68048 28.2582 9.76135 28.2743 9.84146C28.2905 9.92158 28.3106 10.0008 28.3346 10.0789C28.3586 10.157 28.3865 10.2339 28.4181 10.3092C28.4498 10.3845 28.4851 10.4582 28.5241 10.53C28.563 10.6017 28.6055 10.6715 28.6513 10.739C28.6972 10.8064 28.7464 10.8715 28.7987 10.934C28.851 10.9966 28.9064 11.0564 28.9647 11.1134C29.0229 11.1704 29.084 11.2243 29.1476 11.2751C29.2113 11.326 29.2774 11.3736 29.3458 11.4178C29.4141 11.462 29.4847 11.5027 29.5571 11.5398C29.6294 11.5769 29.7036 11.6103 29.7793 11.64C29.855 11.6696 29.9321 11.6954 30.0103 11.7172C30.0886 11.7391 30.1679 11.7569 30.2479 11.7708C30.3279 11.7847 30.4086 11.7946 30.4896 11.8004C30.5469 11.8045 30.6044 11.8066 30.6619 11.8066C30.7431 11.8066 30.8243 11.8025 30.9051 11.7944C30.986 11.7862 31.0663 11.774 31.1459 11.7577C31.2255 11.7415 31.3043 11.7213 31.3818 11.6971C31.4594 11.673 31.5358 11.6449 31.6106 11.6131C31.6854 11.5812 31.7586 11.5456 31.8298 11.5064C31.9011 11.4672 31.9704 11.4245 32.0374 11.3783C32.1045 11.3322 32.1692 11.2827 32.2313 11.23C32.2934 11.1774 32.3529 11.1216 32.4094 11.0629C32.466 11.0043 32.5196 10.9428 32.5701 10.8788C32.6206 10.8147 32.6679 10.7482 32.7117 10.6794C32.7556 10.6106 32.796 10.5397 32.8328 10.4668C32.8697 10.3939 32.9029 10.3193 32.9324 10.2431C32.9618 10.1669 32.9874 10.0893 33.0091 10.0105C33.0309 9.93172 33.0487 9.85192 33.0625 9.77137C33.0763 9.69084 33.086 9.60966 33.0918 9.52815C33.0959 9.47041 33.0979 9.41253 33.098 9.35464C33.0979 9.2729 33.0939 9.19122 33.0858 9.10989C33.0777 9.02855 33.0655 8.94768 33.0494 8.86757C33.0333 8.78745 33.0132 8.70821 32.9892 8.63011C32.9651 8.552 32.9373 8.47515 32.9056 8.39984C32.874 8.32451 32.8386 8.25082 32.7996 8.17905C32.7607 8.10729 32.7182 8.03753 32.6724 7.97004C32.6265 7.90255 32.5773 7.83742 32.5249 7.77488C32.4726 7.71233 32.4173 7.65246 32.3591 7.59548C32.3008 7.53853 32.2397 7.48456 32.1761 7.43376C32.1124 7.38297 32.0463 7.33541 31.978 7.29126C31.9096 7.24708 31.8391 7.20636 31.7667 7.16927C31.6943 7.13216 31.6201 7.09871 31.5445 7.06906C31.4688 7.03944 31.3917 7.01365 31.3134 6.99179C31.2352 6.96992 31.1559 6.952 31.0758 6.9381C30.9958 6.92422 30.9151 6.91439 30.8342 6.90862C30.7768 6.90452 30.7193 6.90247 30.6618 6.90247V6.90234Z" fill="url(#paint1_radial_33_176)"/>
<path id="Vector_3" d="M18.0778 0.0362613C16.9652 0.0344673 15.9724 0.0390799 15.0805 0.051638L12.6893 0.11571C11.9809 0.146465 11.3551 0.186571 10.7933 0.23847C10.5124 0.264355 10.2474 0.293316 9.99625 0.325224C9.75724 0.355348 9.51888 0.390426 9.28133 0.430432C9.05515 0.468875 8.84051 0.510392 8.63471 0.555499C8.42891 0.600605 8.23234 0.649302 8.04269 0.701585C7.85728 0.75271 7.67332 0.808945 7.49102 0.870224C7.31239 0.930452 7.13811 0.994268 6.96602 1.06244C6.62182 1.19879 6.28608 1.35179 5.94035 1.52325C5.67432 1.65523 5.42854 1.78889 5.19506 1.93036C4.96158 2.07183 4.7404 2.22125 4.52384 2.38399C4.30081 2.55241 4.08585 2.73124 3.87966 2.91989C3.66412 3.11621 3.44397 3.33213 3.21523 3.57343C2.9278 3.87495 2.67805 4.1561 2.45636 4.432C2.34551 4.56988 2.24172 4.70622 2.14394 4.84334C2.04725 4.97847 1.95481 5.11659 1.86677 5.2575C1.77963 5.39718 1.6971 5.53942 1.61817 5.68576C1.538 5.83462 1.46223 5.98581 1.39097 6.13913C1.24514 6.45232 1.10905 6.7896 0.973216 7.16608C0.872445 7.44441 0.78221 7.72645 0.702703 8.01158C0.621587 8.30298 0.549442 8.60784 0.485113 8.93755C0.420785 9.26727 0.364658 9.62184 0.315322 10.014C0.262158 10.4438 0.219686 10.8749 0.187947 11.3068C0.152066 11.7817 0.122337 12.3043 0.0979892 12.8859L0.0403244 14.8199L0.00931339 17.1774L0.000343323 20.0269L0.0266129 24.1707L0.108625 27.3103L0.1718 28.5366L0.250738 29.5528C0.276042 29.8267 0.307702 30.1 0.345693 30.3724C0.380292 30.6143 0.417453 30.826 0.457434 31.0093C0.538559 31.3818 0.634487 31.751 0.74499 32.1159C0.850796 32.4653 0.971794 32.8099 1.10764 33.1488C1.24117 33.4807 1.38725 33.8008 1.54615 34.1088C1.70505 34.4169 1.87676 34.7129 2.06129 34.9972C2.24582 35.2816 2.44316 35.5543 2.65383 35.8153C2.86426 36.0764 3.08809 36.3263 3.32441 36.5642C3.56109 36.8025 3.81072 37.0294 4.0738 37.2449C4.33999 37.4629 4.61669 37.6677 4.90289 37.8587C5.16853 38.0363 5.43136 38.1989 5.69611 38.3482C5.96085 38.4975 6.2279 38.633 6.50239 38.7561C6.77688 38.8793 7.05828 38.9901 7.35224 39.0898C7.64621 39.1895 7.95247 39.2782 8.27616 39.3568C8.59986 39.4355 8.94251 39.5046 9.30516 39.5648C9.66781 39.6251 10.0554 39.6767 10.4696 39.7212C10.8838 39.7656 11.3256 39.8024 11.8004 39.8332C12.2752 39.8639 12.7826 39.8885 13.3279 39.9083C14.1702 39.9387 15.4452 39.9566 16.9155 39.9634L21.6755 39.9537L26.1828 39.8906L27.8966 39.8424L29.0131 39.785C29.2528 39.7655 29.4873 39.7424 29.7136 39.7154C29.9399 39.6884 30.1631 39.6575 30.3804 39.6224C30.5978 39.5873 30.8102 39.548 31.019 39.5045C31.2253 39.4615 31.4306 39.4135 31.6346 39.3606C31.8365 39.3093 32.0357 39.251 32.2328 39.1891C32.4298 39.1272 32.6249 39.0603 32.8188 38.9886C33.0138 38.9163 33.207 38.8394 33.3982 38.7578C33.5908 38.6758 33.7832 38.5881 33.9762 38.4951C34.2726 38.3523 34.5112 38.2333 34.7207 38.117C34.9178 38.0089 35.1076 37.888 35.2889 37.7552C35.4678 37.6234 35.6456 37.4735 35.8507 37.2846C36.0557 37.0957 36.288 36.8682 36.5757 36.5803C36.8285 36.3276 37.0418 36.108 37.2256 35.9082C37.4095 35.7084 37.5645 35.5287 37.7003 35.3554C37.8298 35.191 37.9504 35.0198 38.0617 34.8426C38.1702 34.6696 38.2702 34.4899 38.372 34.2907C38.5253 33.9908 38.6616 33.7131 38.7838 33.4452C38.9023 33.1869 39.0107 32.9241 39.1085 32.6573C39.2048 32.3926 39.2883 32.1234 39.3585 31.8507C39.4308 31.57 39.493 31.2738 39.5469 30.9488C39.6007 30.6238 39.6462 30.2701 39.6856 29.8752C39.7251 29.4802 39.7587 29.0438 39.7881 28.5534L39.8663 26.9071L39.9335 24.8597L39.9814 22.5788L39.9998 20.1938L39.957 15.5094L39.8998 13.4113L39.8216 11.6099L39.7242 10.2054C39.6888 9.81457 39.6506 9.50677 39.6102 9.29866C39.5653 9.06872 39.5153 8.83984 39.46 8.61219C39.4062 8.39068 39.347 8.17051 39.2825 7.95186C39.2196 7.73885 39.1514 7.52747 39.0777 7.31794C39.0049 7.11098 38.9278 6.90839 38.8471 6.71015C38.7663 6.51191 38.6789 6.31828 38.5879 6.12876C38.497 5.93923 38.4016 5.75432 38.3015 5.57363C38.2015 5.39295 38.0972 5.21675 37.9881 5.04491C37.8791 4.87307 37.7655 4.70558 37.6472 4.54258C37.5296 4.3801 37.407 4.22134 37.2795 4.06653C37.1526 3.91256 37.0209 3.76265 36.8845 3.617C36.7484 3.47153 36.6076 3.33042 36.4625 3.19387C36.3174 3.05726 36.1678 2.92502 36.0135 2.79713C35.8587 2.66882 35.6999 2.54536 35.5373 2.42692C35.3731 2.30727 35.2052 2.19266 35.034 2.08324C34.8604 1.97226 34.6836 1.86645 34.5037 1.76595C34.3207 1.66377 34.1348 1.56685 33.9463 1.47532C33.6334 1.32321 33.344 1.18828 33.0599 1.06859C32.7807 0.94981 32.496 0.844313 32.2067 0.752459C31.9159 0.660836 31.6131 0.582284 31.2799 0.514495C30.9467 0.446707 30.5834 0.390195 30.1722 0.342141C29.761 0.294087 29.3018 0.25526 28.7767 0.222968C28.2516 0.190675 27.6609 0.165301 26.9865 0.144798L24.6945 0.0935407L21.7937 0.0593264L18.0791 0.0365155L18.0778 0.0362613ZM20.007 3.56049L25.3638 3.59098L27.3847 3.62994C27.9412 3.64557 28.3659 3.6639 28.6149 3.68504C28.9391 3.71234 29.2479 3.74655 29.5433 3.78756C29.8267 3.8267 30.1088 3.87538 30.389 3.93351C30.6581 3.9899 30.9148 4.05397 31.1604 4.12624C31.4061 4.19852 31.6407 4.2795 31.8659 4.36908C32.091 4.45865 32.3063 4.55719 32.5135 4.66509C32.7191 4.77217 32.9188 4.89002 33.112 5.01813C33.3042 5.14563 33.4895 5.283 33.6694 5.43101C33.8493 5.57902 34.0237 5.73766 34.194 5.90732C34.3738 6.08634 34.5396 6.26869 34.6925 6.45681C34.8448 6.64375 34.9857 6.8397 35.1145 7.04358C35.2447 7.25036 35.362 7.46498 35.4658 7.68622C35.5719 7.91176 35.6673 8.1501 35.7529 8.40345C35.8385 8.65679 35.9147 8.92602 35.9823 9.2137C36.053 9.5187 36.1122 9.82625 36.1599 10.1357C36.2111 10.4638 36.255 10.8136 36.2921 11.1882C36.3293 11.5627 36.36 11.9621 36.3854 12.3895C36.4056 12.7323 36.4233 13.1846 36.4383 13.7189L36.4759 15.5404L36.5046 20.0024L36.4719 24.4602L36.4327 26.2765L36.3787 27.5976C36.3413 28.2161 36.3019 28.7361 36.2547 29.1887C36.231 29.415 36.2054 29.6244 36.1769 29.8209C36.1503 30.0064 36.1187 30.1913 36.0822 30.3752C36.0489 30.543 36.0102 30.7097 35.9662 30.875C35.9241 31.0327 35.8767 31.189 35.8241 31.3436C35.7711 31.4989 35.7135 31.6526 35.6513 31.8044C35.5855 31.9647 35.516 32.1235 35.443 32.2807C35.3781 32.421 35.3098 32.5575 35.2375 32.6904C35.166 32.8219 35.0901 32.951 35.0099 33.0774C34.9304 33.2026 34.8472 33.3242 34.76 33.442C34.6734 33.5593 34.5825 33.6735 34.4876 33.7844C34.393 33.8947 34.2944 34.0016 34.192 34.1047C34.0894 34.2079 33.9831 34.3074 33.8729 34.4036C33.7627 34.4997 33.6484 34.5919 33.5301 34.6809C33.4118 34.7698 33.2894 34.8551 33.163 34.9369C33.0365 35.0186 32.906 35.0971 32.7713 35.1719C32.6367 35.2467 32.4978 35.3182 32.3549 35.3863C32.2095 35.4554 32.0621 35.5201 31.9129 35.5803C31.7586 35.6425 31.6027 35.7004 31.4452 35.7539C31.1248 35.8631 30.7869 35.959 30.4312 36.0416C30.0604 36.1272 29.6863 36.1973 29.3097 36.2515C29.1649 36.2727 28.8321 36.2925 28.3554 36.311L26.5388 36.3615L21.3887 36.4284L15.9981 36.4368L13.8812 36.4143L12.5066 36.3715L11.493 36.3002C11.1783 36.2737 10.8856 36.2442 10.6113 36.2108C10.3371 36.1773 10.0817 36.14 9.84145 36.098C9.61376 36.0586 9.38745 36.0116 9.16292 35.957C8.95819 35.9072 8.75556 35.8492 8.55552 35.783C8.36266 35.719 8.17826 35.6485 7.99886 35.571C7.81946 35.4934 7.64518 35.4085 7.47257 35.3157C7.29996 35.2229 7.12914 35.1222 6.95641 35.0124C6.82608 34.9296 6.70012 34.8458 6.57889 34.757C6.45767 34.6682 6.34054 34.5796 6.22778 34.4868C6.11501 34.3941 6.00673 34.2985 5.90229 34.2001C5.79855 34.1021 5.69836 34.0005 5.60192 33.8953C5.50581 33.7905 5.41393 33.6826 5.32577 33.5709C5.23726 33.4587 5.15293 33.3433 5.07294 33.2249C4.99176 33.1047 4.91495 32.9816 4.84266 32.8558C4.76962 32.729 4.70017 32.5977 4.63417 32.4624C4.56707 32.3245 4.50446 32.1845 4.44644 32.0425C4.38749 31.8979 4.33162 31.7488 4.27908 31.5948C4.17401 31.2866 4.08174 30.9585 4.00152 30.6087C3.92131 30.2589 3.85288 29.8872 3.79495 29.4913C3.73703 29.0953 3.69039 28.6755 3.65323 28.2293C3.6258 27.9006 3.60402 27.3887 3.58736 26.7428L3.55251 24.4458L3.56532 18.5903L3.66617 12.995L3.74306 11.0236L3.78663 10.372C3.80175 10.198 3.81738 10.0691 3.8334 9.99167C3.88619 9.73704 3.93937 9.50011 3.99435 9.27829C4.0457 9.06903 4.10283 8.86122 4.16568 8.65512C4.22539 8.4606 4.28831 8.27838 4.35559 8.10577C4.42046 7.93856 4.49276 7.77433 4.57228 7.61356C4.64993 7.45723 4.73336 7.30756 4.82395 7.16186C4.91455 7.01616 5.01233 6.87481 5.11894 6.73424C5.22556 6.59366 5.34038 6.45488 5.46532 6.31418C5.59026 6.17348 5.72519 6.03137 5.87153 5.8849C6.04209 5.71337 6.21968 5.54899 6.40385 5.39218C6.57775 5.24424 6.75909 5.10527 6.94718 4.97584C7.13209 4.8477 7.32174 4.73365 7.51922 4.62883C7.71669 4.524 7.92197 4.42931 8.1379 4.34409C8.35382 4.25887 8.58063 4.18263 8.82091 4.11343C9.07333 4.04262 9.32855 3.98222 9.58593 3.93236C9.85657 3.87931 10.144 3.83305 10.4509 3.79268C10.7578 3.75232 11.0843 3.71746 11.4334 3.68722C11.6769 3.6662 12.0964 3.6475 12.6488 3.63173L14.6594 3.59201L20.0079 3.55933L20.007 3.56049Z" fill="url(#paint2_radial_33_176)"/>
</g>
</g>
<defs>
<radialGradient id="paint0_radial_33_176" cx="0" cy="0" r="1" gradientUnits="userSpaceOnUse" gradientTransform="translate(6.37288 42.8738) rotate(-9.53101) scale(84.5383 51.3143)">
<stop stop-color="#FED576"/>
<stop offset="0.263" stop-color="#F47133"/>
<stop offset="0.609" stop-color="#BC3081"/>
<stop offset="1" stop-color="#4C63D2"/>
</radialGradient>
<radialGradient id="paint1_radial_33_176" cx="0" cy="0" r="1" gradientUnits="userSpaceOnUse" gradientTransform="translate(6.37295 42.874) rotate(-9.53102) scale(84.5383 51.3143)">
<stop stop-color="#FED576"/>
<stop offset="0.263" stop-color="#F47133"/>
<stop offset="0.609" stop-color="#BC3081"/>
<stop offset="1" stop-color="#4C63D2"/>
</radialGradient>
<radialGradient id="paint2_radial_33_176" cx="0" cy="0" r="1" gradientUnits="userSpaceOnUse" gradientTransform="translate(6.37296 42.8739) rotate(-9.53101) scale(84.5383 51.3143)">
<stop stop-color="#FED576"/>
<stop offset="0.263" stop-color="#F47133"/>
<stop offset="0.609" stop-color="#BC3081"/>
<stop offset="1" stop-color="#4C63D2"/>
</radialGradient>
</defs>
</svg>
