<svg width="40" height="40" viewBox="0 0 40 40" fill="none" xmlns="http://www.w3.org/2000/svg">
<g id="linkedin" clip-path="url(#clip0_32_11)">
<path id="Path 2525" d="M38.0372 37.4178C38.123 37.4188 38.2081 37.3991 38.2872 37.36C38.3662 37.3208 38.4376 37.263 38.4968 37.1901C38.556 37.1173 38.6019 37.0309 38.6315 36.9364C38.6611 36.8419 38.6737 36.7413 38.6688 36.6408C38.6688 36.0897 38.3854 35.8264 37.8038 35.8264H36.8642V38.7116H37.2176V37.454H37.6519L37.6618 37.4693L38.3358 38.7116H38.7137L37.9886 37.4258L38.0372 37.4178ZM37.6284 37.1288H37.2186V36.1534H37.738C38.0064 36.1534 38.3123 36.2048 38.3123 36.6169C38.3123 37.0909 38.0027 37.1288 37.6263 37.1288" fill="#0A66C2"/>
<path id="Path 2520" d="M34.0813 34.0824H28.1545V24.8006C28.1545 22.5873 28.115 19.738 25.072 19.738C21.9852 19.738 21.5129 22.1495 21.5129 24.6395V34.0818H15.5861V14.9946H21.2758V17.6031H21.3554C21.9248 16.6295 22.7477 15.8285 23.7362 15.2856C24.7248 14.7426 25.8421 14.478 26.9692 14.5198C32.9762 14.5198 34.0838 18.4711 34.0838 23.6115L34.0813 34.0824ZM8.89877 12.3855C8.21852 12.3856 7.5535 12.184 6.98784 11.8062C6.42217 11.4283 5.98127 10.8912 5.72084 10.2628C5.46041 9.63437 5.39216 8.94282 5.52475 8.2756C5.65734 7.60838 5.98481 6.99547 6.46572 6.51436C6.94664 6.03325 7.55942 5.70556 8.22657 5.57273C8.89372 5.4399 9.58526 5.50788 10.2138 5.7681C10.8423 6.02831 11.3795 6.46906 11.7575 7.03461C12.1356 7.60017 12.3374 8.26512 12.3375 8.94539C12.3376 9.39707 12.2487 9.84434 12.0759 10.2617C11.9032 10.679 11.6499 11.0582 11.3306 11.3776C11.0113 11.6971 10.6322 11.9505 10.2149 12.1234C9.79765 12.2964 9.35043 12.3854 8.89877 12.3855V12.3855ZM11.8621 34.0824H5.92922V14.9946H11.8621V34.0824ZM37.036 0.00248112H2.95104C2.17741 -0.00624962 1.43192 0.292528 0.878456 0.83316C0.324993 1.37379 0.00883141 2.11204 -0.000610352 2.88569V37.1132C0.00850826 37.8873 0.324485 38.626 0.877929 39.1672C1.43137 39.7084 2.17702 40.0078 2.95104 39.9995H37.036C37.8116 40.0093 38.5593 39.7107 39.1149 39.1696C39.6706 38.6284 39.9887 37.8888 39.9994 37.1132V2.88323C39.9883 2.10804 39.67 1.36895 39.1144 0.828329C38.5587 0.287711 37.8112 -0.0102132 37.036 1.05623e-05" fill="#0A66C2"/>
<path id="Path 2526" d="M37.6713 34.5413C37.0616 34.5481 36.4789 34.8379 36.0509 35.3473C35.6229 35.8567 35.3842 36.5442 35.3871 37.2594C35.3901 37.9746 35.6344 38.6593 36.0666 39.1638C36.4988 39.6683 37.0837 39.9515 37.6935 39.9515C38.3032 39.9515 38.8881 39.6683 39.3203 39.1638C39.7525 38.6593 39.9968 37.9746 39.9998 37.2594C40.0027 36.5442 39.7641 35.8567 39.336 35.3473C38.908 34.8379 38.3254 34.5481 37.7156 34.5413H37.6713ZM37.6713 39.6418C37.2714 39.6496 36.8784 39.5182 36.5422 39.264C36.206 39.0099 35.9416 38.6446 35.7824 38.2142C35.6232 37.7838 35.5763 37.3077 35.6478 36.8461C35.7193 36.3845 35.9059 35.9581 36.184 35.6209C36.4621 35.2837 36.8192 35.0507 37.2101 34.9516C37.601 34.8524 38.0083 34.8914 38.3803 35.0637C38.7524 35.236 39.0725 35.5338 39.3002 35.9195C39.5279 36.3052 39.653 36.7614 39.6597 37.2305C39.6597 37.244 39.6597 37.2569 39.6597 37.2703C39.6709 37.8857 39.4732 38.4811 39.1102 38.9256C38.7472 39.3701 38.2486 39.6273 37.724 39.6406H37.6718" fill="#0A66C2"/>
</g>
<defs>
<clipPath id="clip0_32_11">
<rect width="40" height="40" fill="white"/>
</clipPath>
</defs>
</svg>
