<svg width="40" height="40" viewBox="0 0 40 40" fill="none" xmlns="http://www.w3.org/2000/svg">
<g id="twitter">
<g id="Logo 1">
<path id="white background" d="M35.7984 10.057C35.8226 10.4825 35.8226 10.9079 35.8226 11.3374C35.8226 24.4217 27.629 39.5119 12.6468 39.5119V39.504C8.22096 39.5119 3.88709 37.9707 0.161285 35.0648C0.804834 35.1589 1.45161 35.206 2.1 35.2079C5.76774 35.2119 9.33064 33.7158 12.2161 30.9609C8.73064 30.8805 5.67419 28.1177 4.60645 24.0844C5.82741 24.3707 7.08548 24.3119 8.28387 23.9138C4.48387 22.9805 1.75 18.9217 1.75 14.2079C1.75 14.1648 1.75 14.1236 1.75 14.0825C2.88225 14.8491 4.15 15.2746 5.44677 15.3217C1.86774 12.4138 0.764511 6.62559 2.9258 2.1001C7.06128 8.28637 13.1629 12.0472 19.7129 12.4452C19.0564 9.00598 19.9532 5.40206 22.0693 2.98441C25.35 -0.764608 30.5097 -0.572451 33.5935 3.41382C35.4177 2.97657 37.1661 2.16284 38.7661 1.0099C38.1581 3.30206 36.8855 5.24912 35.1855 6.48637C36.8 6.255 38.3774 5.72951 39.8629 4.92755C38.7693 6.91971 37.3919 8.655 35.7984 10.057Z" fill="#1D9BF0"/>
</g>
</g>
</svg>
