<svg width="40" height="40" viewBox="0 0 40 40" fill="none" xmlns="http://www.w3.org/2000/svg">
<g id="youtube">
<path id="bg" d="M7.48006 8.89058C11.0635 8.71305 16.1661 8.5 20 8.5C23.8339 8.5 28.9365 8.71305 32.5199 8.89058C34.4935 8.98836 36.0691 10.5302 36.1965 12.4912C36.3501 14.8568 36.5 17.746 36.5 20C36.5 22.254 36.3501 25.1432 36.1965 27.5088C36.0691 29.4698 34.4935 31.0116 32.5199 31.1094C28.9365 31.287 23.8339 31.5 20 31.5C16.1661 31.5 11.0635 31.287 7.48006 31.1094C5.50646 31.0116 3.9309 29.4698 3.80353 27.5088C3.64987 25.1432 3.5 22.254 3.5 20C3.5 17.746 3.64987 14.8568 3.80353 12.4912C3.9309 10.5302 5.50646 8.98836 7.48006 8.89058Z" stroke="#FC0D1B" stroke-width="2"/>
<path id="play" d="M16.25 15V25L26.25 20L16.25 15Z" fill="white"/>
</g>
</svg>
